Coordinates
version=1
nRows=11
nColumns=40
inDegrees=yes

Units are S.I. units (second, meters, Newtons, ...)
If the header above contains a line with 'inDegrees', this indicates whether rotational values are in degrees (yes) or radians (no).

endheader
time	pelvis_tilt	pelvis_list	pelvis_rotation	pelvis_tx	pelvis_ty	pelvis_tz	hip_flexion_r	hip_adduction_r	hip_rotation_r	knee_angle_r	knee_angle_r_beta	ankle_angle_r	subtalar_angle_r	mtp_angle_r	hip_flexion_l	hip_adduction_l	hip_rotation_l	knee_angle_l	knee_angle_l_beta	ankle_angle_l	subtalar_angle_l	mtp_angle_l	lumbar_extension	lumbar_bending	lumbar_rotation	arm_flex_r	arm_add_r	arm_rot_r	elbow_flex_r	pro_sup_r	wrist_flex_r	wrist_dev_r	arm_flex_l	arm_add_l	arm_rot_l	elbow_flex_l	pro_sup_l	wrist_flex_l	wrist_dev_l
      6.20000000	     20.79028616	     -3.21978270	   -178.47038199	      0.37317023	      0.53430889	     -0.92570571	    100.01163689	    -47.72927504	     19.86350250	     70.28238843	      1.22665908	     -4.02984327	      0.00000000	      0.00000000	     94.03518745	    -46.34730785	      6.20869742	     73.78095257	      1.28772055	     -1.60072351	      0.00000000	      0.00000000	    -31.37233650	     -6.93925113	     -3.82530780	     47.50888163	    -11.48260327	     66.21651151	     12.61666509	     83.87673104	      0.00000000	      0.00000000	     49.46178020	    -16.45599939	     73.53196000	     14.27663832	     66.65174331	      0.00000000	      0.00000000
      6.20500000	     20.71770072	     -3.22409648	   -178.48803671	      0.37302342	      0.53465800	     -0.92567093	     99.86623077	    -47.70573974	     19.84382499	     70.25016407	      1.22609666	     -3.99687749	      0.00000000	      0.00000000	     93.89846311	    -46.37395953	      6.15353863	     73.76610821	      1.28746146	     -1.54046117	      0.00000000	      0.00000000	    -31.49691409	     -6.95509951	     -3.78875689	     47.49679795	    -11.49347737	     65.76075874	     12.63189561	     84.10159335	      0.00000000	      0.00000000	     49.52863572	    -16.42078772	     73.82412093	     14.26499625	     65.74727510	      0.00000000	      0.00000000
      6.21000000	     20.76263480	     -3.16388459	   -178.44270281	      0.37296406	      0.53477723	     -0.92552447	     99.80252456	    -47.74067085	     19.75797879	     70.22743043	      1.22569989	     -4.02808996	      0.00000000	      0.00000000	     93.98528805	    -46.29751307	      6.22615137	     73.75026106	      1.28718488	     -1.61921433	      0.00000000	      0.00000000	    -31.48187053	     -6.87526652	     -3.79744370	     47.50625392	    -11.46824015	     65.56263845	     12.58301170	     84.24910903	      0.00000000	      0.00000000	     49.55649493	    -16.45472287	     74.11468837	     14.34913371	     65.25556101	      0.00000000	      0.00000000
      6.21500000	     20.72016598	     -3.14829956	   -178.39639140	      0.37286539	      0.53512149	     -0.92543402	     99.69698131	    -47.79318797	     19.71235961	     70.21323185	      1.22545207	     -4.01014512	      0.00000000	      0.00000000	     93.90147287	    -46.23750300	      6.22554562	     73.70984063	      1.28647941	     -1.63748915	      0.00000000	      0.00000000	    -31.58283809	     -6.84625237	     -3.84606722	     47.55524395	    -11.42142553	     65.64365308	     12.50134939	     84.17806858	      0.00000000	      0.00000000	     49.67997436	    -16.53871562	     74.79087506	     14.44809042	     64.88732186	      0.00000000	      0.00000000
      6.22000000	     20.69659210	     -3.11099666	   -178.39338115	      0.37274948	      0.53538775	     -0.92539227	     99.54036797	    -47.78365485	     19.64755282	     70.16882865	      1.22467709	     -3.95739852	      0.00000000	      0.00000000	     93.85926500	    -46.22908082	      6.25987472	     73.67332863	      1.28584216	     -1.60745413	      0.00000000	      0.00000000	    -31.64438700	     -6.79750715	     -3.88895914	     47.68000325	    -11.43035854	     66.37467244	     12.54212144	     83.91076473	      0.00000000	      0.00000000	     49.73939744	    -16.65410438	     75.08831591	     14.47751674	     65.46096329	      0.00000000	      0.00000000
      6.22500000	     20.72492303	     -3.20233217	   -178.39161111	      0.37270446	      0.53565280	     -0.92541027	     99.62293510	    -47.74787578	     19.77070847	     70.13313152	      1.22405406	     -4.00509097	      0.00000000	      0.00000000	     93.70757686	    -46.20905278	      6.06690818	     73.64366351	      1.28532440	     -1.57939606	      0.00000000	      0.00000000	    -31.67753147	     -6.91183624	     -3.89927472	     47.73328814	    -11.49867852	     66.87559365	     12.58542080	     83.40328814	      0.00000000	      0.00000000	     49.79484629	    -16.57955533	     74.74902971	     14.39857622	     66.70996955	      0.00000000	      0.00000000
      6.23000000	     20.72307299	     -3.14073982	   -178.36618601	      0.37259117	      0.53596850	     -0.92533688	     99.47787233	    -47.79980845	     19.60948414	     70.09095819	      1.22331800	     -3.94475814	      0.00000000	      0.00000000	     93.72336134	    -46.19438613	      6.11848946	     73.58615435	      1.28432068	     -1.63500464	      0.00000000	      0.00000000	    -31.72427530	     -6.83280379	     -3.89118891	     47.71248849	    -11.39486372	     66.27516866	     12.42821970	     84.03361304	      0.00000000	      0.00000000	     49.77381272	    -16.57578689	     74.63307965	     14.52326784	     65.76556886	      0.00000000	      0.00000000
      6.23500000	     20.74043389	     -3.15800637	   -178.37261636	      0.37253530	      0.53622146	     -0.92537827	     99.44305790	    -47.74975211	     19.64910656	     70.06195858	      1.22281186	     -3.91953150	      0.00000000	      0.00000000	     93.65926348	    -46.17572888	      6.05751324	     73.55594188	      1.28379337	     -1.65044951	      0.00000000	      0.00000000	    -31.75002427	     -6.87266003	     -3.92039044	     47.73018951	    -11.37381155	     66.15565949	     12.46037023	     83.90827657	      0.00000000	      0.00000000	     49.78861365	    -16.60042869	     74.70496372	     14.47691518	     64.90976799	      0.00000000	      0.00000000
      6.24000000	     20.95392743	     -3.16295097	   -178.39963488	      0.37264917	      0.53616002	     -0.92541392	     99.56998604	    -47.59780493	     19.71027301	     69.98274518	      1.22142932	     -4.01157278	      0.00000000	      0.00000000	     93.81629340	    -46.14640930	      6.08150304	     73.50172737	      1.28284715	     -1.61385151	      0.00000000	      0.00000000	    -31.55500705	     -6.92404597	     -3.84517855	     47.65230293	    -11.44544057	     65.66732972	     12.57961581	     84.08552423	      0.00000000	      0.00000000	     49.71078027	    -16.48603137	     74.22053010	     14.43848328	     64.32178492	      0.00000000	      0.00000000
      6.24500000	     20.86309805	     -3.08227803	   -178.32926552	      0.37245726	      0.53668306	     -0.92532091	     99.32268683	    -47.71459078	     19.51964377	     69.96829061	      1.22117704	     -3.96446643	      0.00000000	      0.00000000	     93.72654107	    -46.07143422	      6.13387421	     73.44054286	      1.28177928	     -1.62659143	      0.00000000	      0.00000000	    -31.71516018	     -6.81118331	     -3.88326937	     47.72646531	    -11.38733005	     65.72364135	     12.47183379	     84.12606716	      0.00000000	      0.00000000	     49.82761226	    -16.56814148	     74.79848551	     14.51244519	     64.42016871	      0.00000000	      0.00000000
      6.25000000	     20.82431854	     -3.06987901	   -178.32193356	      0.37234093	      0.53716899	     -0.92538191	     99.16377394	    -47.70773821	     19.44893483	     69.91596107	      1.22026372	     -3.95803655	      0.00000000	      0.00000000	     93.59697783	    -46.06797352	      6.07591872	     73.36245692	      1.28041642	     -1.59695221	      0.00000000	      0.00000000	    -31.82504034	     -6.81091794	     -3.89274625	     47.80249536	    -11.38010857	     65.89262446	     12.46715127	     84.20681780	      0.00000000	      0.00000000	     49.86186225	    -16.58362346	     74.68684951	     14.53612147	     64.50658441	      0.00000000	      0.00000000
